<svg xmlns="http://www.w3.org/2000/svg" viewBox="0 0 231.64 122.41"><defs><style>.cls-1{fill:#fff;}</style></defs><g id="Capa_2" data-name="Capa 2"><g id="Layer_1" data-name="Layer 1"><path class="cls-1" d="M207.9,99.36a55.18,55.18,0,0,1-17.34,11.87,57.12,57.12,0,0,1-10.17,3.26,56.25,56.25,0,0,1-10.69,1.36,58.84,58.84,0,0,1-21.42-3.42,59.6,59.6,0,0,1-18.91-11.22,55.84,55.84,0,0,0,18.07,13.2,58.43,58.43,0,0,0,22.24,5.3,58.91,58.91,0,0,0,22.88-3.6A60,60,0,0,0,212.49,104h0l.1-.09a3.2,3.2,0,0,0,0-4.58,3.33,3.33,0,0,0-4.65.06"/><path class="cls-1" d="M229.72,45.32A60.63,60.63,0,0,0,219,23.76,61.75,61.75,0,0,0,177.4.42,63.26,63.26,0,0,0,153,2.35a61.69,61.69,0,0,0-21.68,11.11c-1.59,1.27-3.12,2.61-4.57,4-.77.72-1.36,1.36-2,2l-2,2-8,8L98.89,45.57a3.94,3.94,0,0,0,0,5.56,4.1,4.1,0,0,0,5.73.08l16.31-15.63,8.13-7.84,2-2c.67-.63,1.38-1.35,2-1.91,1.26-1.19,2.59-2.31,3.95-3.39A54,54,0,0,1,176.28,9.67,53.29,53.29,0,0,1,196,16a53.86,53.86,0,0,1,15.82,13.3,53,53,0,0,1,9.5,18.26A53.52,53.52,0,0,1,223,68.12v0a4,4,0,0,0,8,1,60.68,60.68,0,0,0-1.3-23.84"/><path class="cls-1" d="M72.54,72.54l-.08.08a19,19,0,0,1-3.74,2.71,17.7,17.7,0,0,1-4.4,1.55,17.51,17.51,0,0,1-4.74.25A16.58,16.58,0,0,1,55,76a16.79,16.79,0,0,1-7.47-5.92,17.52,17.52,0,0,1-2.19-4.34,17.11,17.11,0,0,1-.83-4.83,16.91,16.91,0,0,1,2.68-9.51,17.63,17.63,0,0,1,7.72-6.68A20.22,20.22,0,0,1,60,43.27a21.53,21.53,0,0,1,5.38,0,20.58,20.58,0,0,1,5.23,1.56,22.35,22.35,0,0,1,4.62,3,20.31,20.31,0,0,0-4.33-3.54,21.59,21.59,0,0,0-5.28-2.17,21.07,21.07,0,0,0-5.77-.57A22.79,22.79,0,0,0,54,42.72a22.15,22.15,0,0,0-5.25,2.76,21,21,0,0,0-4.24,4.18,20.4,20.4,0,0,0-4,11.2,21.42,21.42,0,0,0,.6,6.06A20.91,20.91,0,0,0,52.77,80.85a22.6,22.6,0,0,0,6.11,1.84,23.87,23.87,0,0,0,6.43,0,24.19,24.19,0,0,0,6.21-1.82A23.13,23.13,0,0,0,77,77.36l.08-.07a3.2,3.2,0,0,0,.16-4.58,3.33,3.33,0,0,0-4.66-.17"/><path class="cls-1" d="M88.1,56.36a5.49,5.49,0,1,0,5.58,5.49,5.53,5.53,0,0,0-5.58-5.49"/><path class="cls-1" d="M221.38,81A5.49,5.49,0,1,0,227,86.45,5.53,5.53,0,0,0,221.38,81"/><path class="cls-1" d="M208.31,58.53a3.25,3.25,0,0,0-3.25,3.26,34.62,34.62,0,0,1-5.65,19.27,33.49,33.49,0,0,1-3.14,4.1l-.87,1-1,.89c-.64.59-1.25,1.21-1.91,1.78a40,40,0,0,1-8.88,5.6,41.42,41.42,0,0,1-10.26,2.84,38.44,38.44,0,0,1-21.24-3.31,43.14,43.14,0,0,1-9.24-6,38.15,38.15,0,0,0,19.25,11.34,42.68,42.68,0,0,0,11.51,1.08A44.65,44.65,0,0,0,185.13,98a44.46,44.46,0,0,0,10.37-5.55c.78-.59,1.52-1.25,2.28-1.88l1.13-1,1.05-1a39.48,39.48,0,0,0,3.86-4.5,40,40,0,0,0,7.8-22.14v-.17a3.26,3.26,0,0,0-3.32-3.2"/><path class="cls-1" d="M145.24,38.68l1-1,.92-.84A35.31,35.31,0,0,1,151,33.74a34.86,34.86,0,0,1,18.86-6,35.37,35.37,0,0,1,19.21,5.38l.05,0a4.08,4.08,0,0,0,5.51-1.11,3.94,3.94,0,0,0-1.06-5.53,43,43,0,0,0-47.71-.23,42.69,42.69,0,0,0-5,3.89l-1.18,1.05-1,1-2,2-8.09,7.88-16.13,15.8-16,15.86-8,8-2,2-1,1-.93.84a33.69,33.69,0,0,1-22.72,9.08,35.43,35.43,0,0,1-19.2-5.39l-.06,0A4.09,4.09,0,0,0,37,90.33a4,4,0,0,0,1.07,5.54,43,43,0,0,0,47.73.22,43.52,43.52,0,0,0,5-3.9l1.18-1,1-1,2-2,8.09-7.88L119.18,64.5l16.06-15.87,8-8Z"/><path class="cls-1" d="M39.12,33.63A39.6,39.6,0,0,1,48,28,40.35,40.35,0,0,1,58.26,25.2,41.41,41.41,0,0,1,69,25.32,41.75,41.75,0,0,1,79.49,28.5a42.85,42.85,0,0,1,9.24,6,41.31,41.31,0,0,0-8.68-7.07A40.48,40.48,0,0,0,69.48,23.2,42.21,42.21,0,0,0,58,22.12a44.71,44.71,0,0,0-11.46,2.32A44.26,44.26,0,0,0,36.15,30c-.79.59-1.52,1.25-2.28,1.88l-1.13,1-1.06,1A40.23,40.23,0,0,0,20,60.51v.17a3.3,3.3,0,0,0,6.6-.06,34.56,34.56,0,0,1,5.64-19.26,33.49,33.49,0,0,1,3.14-4.1l.88-1,.94-.9c.64-.58,1.25-1.21,1.91-1.77"/><path class="cls-1" d="M27.71,73.25a5.49,5.49,0,1,0,5.58,5.49,5.54,5.54,0,0,0-5.58-5.49"/><path class="cls-1" d="M203.91,49.26a5.49,5.49,0,1,0-5.58-5.49,5.54,5.54,0,0,0,5.58,5.49"/><path class="cls-1" d="M190.53,55.5a20.89,20.89,0,0,0-11.65-13.92,21.93,21.93,0,0,0-6.1-1.83,23.47,23.47,0,0,0-6.43,0,24.87,24.87,0,0,0-6.21,1.81,23.88,23.88,0,0,0-5.44,3.54l-.08.07a3.2,3.2,0,0,0-.16,4.57,3.32,3.32,0,0,0,4.64.16l.08-.07a19.66,19.66,0,0,1,3.74-2.72,18.29,18.29,0,0,1,4.42-1.56,17.82,17.82,0,0,1,4.73-.23,16.21,16.21,0,0,1,4.64,1.11,16.82,16.82,0,0,1,9.66,10.27,17.18,17.18,0,0,1,.84,4.83A17,17,0,0,1,184.52,71a19,19,0,0,1-3.34,3.88,19.64,19.64,0,0,1-4.38,2.82,20.57,20.57,0,0,1-5.1,1.45,21.53,21.53,0,0,1-5.38,0,20,20,0,0,1-5.22-1.57,21.76,21.76,0,0,1-4.63-3,20.37,20.37,0,0,0,4.34,3.54,20.9,20.9,0,0,0,5.28,2.17,21.43,21.43,0,0,0,5.77.57,22.88,22.88,0,0,0,5.76-1.13,22,22,0,0,0,5.23-2.76,21,21,0,0,0,4.25-4.18,20.44,20.44,0,0,0,4-11.19,21.06,21.06,0,0,0-.6-6.06"/><path class="cls-1" d="M127,71.22,110.73,86.85l-8.13,7.84-2,2c-.67.63-1.38,1.35-2,1.9q-1.89,1.78-4,3.38a54.09,54.09,0,0,1-59,4.5,53.62,53.62,0,0,1-15.81-13.3,52.85,52.85,0,0,1-9.49-18.26A53.66,53.66,0,0,1,8.66,54.3v0A4,4,0,0,0,5.2,49.86,4,4,0,0,0,.63,53.25a59.48,59.48,0,0,0,12,45.41A61.85,61.85,0,0,0,54.25,122a63.26,63.26,0,0,0,24.38-1.93A61.69,61.69,0,0,0,100.31,109a60.12,60.12,0,0,0,4.57-4c.76-.71,1.36-1.35,2-2l2-2,8-8,15.87-16.06a3.93,3.93,0,0,0,0-5.54,4.08,4.08,0,0,0-5.71-.08"/><path class="cls-1" d="M23.76,23.06A55.27,55.27,0,0,1,41.1,11.2,57.93,57.93,0,0,1,62,6.58,58.43,58.43,0,0,1,83.37,10a59,59,0,0,1,18.91,11.21A55.61,55.61,0,0,0,84.21,8,58.53,58.53,0,0,0,62,2.69a59,59,0,0,0-22.89,3.6A59.88,59.88,0,0,0,19.16,18.42l0,0-.1.08a3.22,3.22,0,0,0,.06,4.6,3.35,3.35,0,0,0,4.66-.06"/><path class="cls-1" d="M10.24,41.55a5.49,5.49,0,1,0-5.58-5.49,5.53,5.53,0,0,0,5.58,5.49"/><path class="cls-1" d="M143.52,55.17a5.49,5.49,0,1,0,5.58,5.49,5.54,5.54,0,0,0-5.58-5.49"/></g></g></svg>